<svg id="Warstwa_1" data-name="Warstwa 1" xmlns="http://www.w3.org/2000/svg" viewBox="0 0 434.14 105.75"><defs><style>.cls-1{fill:#fff;}</style></defs><path class="cls-1" d="M212.21,234.45h-23.8V210.39h83.68v24.06h-23.4v67.16H212.21Z" transform="translate(-38.93 -203.13)"/><path class="cls-1" d="M313,272.92c.66,6.48,4.75,9.39,11,9.39,5.15,0,7.93-1.46,7.93-5,0-4.1-3.44-5.43-16.79-8.86-29.35-7.54-33.84-18.11-33.84-30.54,0-13.22,9.25-29.88,41.11-29.88,29.35,0,41.91,13.88,43.1,29.61H331.85c-.53-4.62-2.78-7.8-8.73-7.8-4,0-6.34,1.19-6.34,4.23,0,3.31,2.91,4.37,16.26,8.07,30.8,8.46,35.43,19.17,35.43,31.86,0,17.19-13.62,30-44.55,30-28.95,0-43.5-13-45.08-31.07Z" transform="translate(-38.93 -203.13)"/><path class="cls-1" d="M410.93,287.33l-3,14.28H372.73l25.51-91.22h48.52l26.31,91.22H435.26l-3-14.28Zm16.27-24.06c-1.19-7.27-3.84-21-5.56-30.67h-.79c-1.85,10.84-3.7,22-5.42,30.67Z" transform="translate(-38.93 -203.13)"/><polygon class="cls-1" points="0 0 20.3 35.3 0.52 70.5 40.51 70.5 61.27 35.07 41.02 0 0 0"/><polygon class="cls-1" points="113.27 105.75 92.97 70.44 112.75 35.25 72.76 35.25 52.01 70.68 72.25 105.75 113.27 105.75"/></svg>